<svg width="208" height="297" viewBox="0 0 208 297" fill="none" xmlns="http://www.w3.org/2000/svg">
<path d="M155.413 0H0V244.797L51.7288 296.525H207.142V51.7288L155.413 0ZM178.766 268.15H28.3756V28.3756H103.571V52.4949H129.109V28.3756H154.647V52.4949H178.766V78.033H154.647V103.571H178.766V129.109H154.647V154.647H178.766V268.15Z" fill="#121212"/>
<path d="M154.647 52.4949H129.109V78.033H154.647V52.4949Z" fill="#121212"/>
<path d="M103.571 52.4949H78.033V78.033H103.571V52.4949Z" fill="#121212"/>
<path d="M154.647 103.571H129.109V129.109H154.647V103.571Z" fill="#121212"/>
<path d="M103.571 103.571H78.033V129.109H103.571V103.571Z" fill="#121212"/>
<path d="M103.571 154.647H78.033V180.185H103.571V154.647Z" fill="#121212"/>
<path d="M129.109 78.033H103.571V103.571H129.109V78.033Z" fill="#121212"/>
<path d="M129.109 129.109H103.571V154.647H129.109V129.109Z" fill="#121212"/>
</svg>
