<svg width="175" height="174" viewBox="0 0 175 174" fill="none" xmlns="http://www.w3.org/2000/svg">
<path d="M52.6325 24.3728L46.4104 11.2431L54.8455 7.24325L55.7263 9.1008L49.2836 12.1546L51.1871 16.1688L56.5971 13.6015L57.4238 15.3441L52.0138 17.9114L54.6283 23.4249L52.6393 24.3691L52.6325 24.3728Z" fill="#121212"/>
<path d="M63.4059 19.5136L59.4295 5.54L68.3656 2.99226L68.9034 4.88861L62.0859 6.83303L63.2441 10.9048L69.4616 9.13105L69.997 11.0068L63.7795 12.7806L64.9814 17.0124L71.7989 15.068L72.3367 16.9643L63.4007 19.5121L63.4059 19.5136Z" fill="#121212"/>
<path d="M73.8212 16.5898L76.5333 1.66254L79.1334 1.36961L85.0534 15.3263L82.6763 15.5936L81.3203 12.2348L76.777 12.7459L76.1932 16.321L73.816 16.5882L73.8212 16.5898ZM78.1156 4.61705L77.0811 10.9363L80.6331 10.5385L78.239 4.60205L78.1156 4.61705Z" fill="#121212"/>
<path d="M90.2128 15.5559L90.9076 3.01235L87.0062 2.80399L87.1166 0.833188L97.1178 1.36966L97.0074 3.34046L93.106 3.13209L92.4112 15.6756L90.2128 15.5559Z" fill="#121212"/>
<path d="M102.973 17.4606C102.013 17.2458 101.201 16.8619 100.54 16.3036C99.8793 15.7454 99.4186 15.0161 99.1669 14.1155C98.9119 13.2167 98.9245 12.1494 99.1999 10.9208L101.211 1.92003L103.359 2.39614L101.321 11.5167C101.08 12.5995 101.15 13.4898 101.531 14.1928C101.915 14.894 102.551 15.3431 103.442 15.5434C104.333 15.7436 105.103 15.6026 105.748 15.1308C106.394 14.659 106.836 13.8783 107.079 12.7989L109.116 3.67837L111.264 4.15447L109.253 13.1553C108.978 14.3839 108.529 15.3524 107.902 16.0592C107.275 16.766 106.536 17.2276 105.689 17.4507C104.836 17.6722 103.93 17.6773 102.972 17.4659L102.973 17.4606Z" fill="#121212"/>
<path d="M110.066 18.9934L115.514 5.51274L119.926 7.28642C120.978 7.7094 121.777 8.24002 122.319 8.87675C122.861 9.51349 123.177 10.2035 123.272 10.9535C123.364 11.7002 123.258 12.4596 122.947 13.2301C122.595 14.102 122.062 14.7881 121.344 15.2815C120.629 15.7783 119.752 15.9957 118.715 15.9369L119.276 22.7016L116.905 21.747L116.479 15.3729L114.263 14.483L112.106 19.8177L110.062 18.9952L110.066 18.9934ZM115.013 12.6308L117.27 13.5381C118.193 13.9092 118.955 13.9784 119.552 13.739C120.15 13.4995 120.582 13.0478 120.852 12.3786C121.129 11.6971 121.137 11.0705 120.875 10.4955C120.613 9.92041 120.008 9.44091 119.057 9.05883L116.823 8.16101L115.017 12.629L115.013 12.6308Z" fill="#121212"/>
<path d="M121.101 23.6786L128.689 11.2696L136.612 16.0985L135.582 17.7841L129.537 14.1006L127.325 17.7167L132.838 21.078L131.82 22.7443L126.306 19.383L124.01 23.1416L130.056 26.8252L129.025 28.5108L121.103 23.6819L121.101 23.6786Z" fill="#121212"/>
<path d="M130.774 29.7488L140.307 18.7597L142.943 21.0411C144.71 22.5708 145.6 24.1957 145.608 25.9177C145.616 27.6397 144.881 29.352 143.402 31.0598C141.922 32.7642 140.33 33.7364 138.62 33.9715C136.915 34.2082 135.178 33.5599 133.408 32.0269L130.772 29.7454L130.774 29.7488ZM133.77 29.6508L134.681 30.4404C135.958 31.5466 137.19 31.9851 138.377 31.756C139.563 31.527 140.677 30.812 141.722 29.6094C142.766 28.4067 143.318 27.202 143.372 25.9939C143.428 24.7891 142.82 23.6317 141.543 22.5256L140.633 21.736L133.769 29.6474L133.77 29.6508Z" fill="#121212"/>
<path d="M147.249 47.1374L159.834 39.8317L162.303 44.0843C162.858 45.0423 163.154 45.9275 163.182 46.7403C163.215 47.5546 163.028 48.2791 162.627 48.9103C162.223 49.5433 161.654 50.0741 160.912 50.5066C160.17 50.939 159.424 51.172 158.675 51.2056C157.925 51.2391 157.206 51.041 156.516 50.6129C155.823 50.1815 155.202 49.4875 154.647 48.5295L153.281 46.1793L148.355 49.038L147.252 47.1355L147.249 47.1374ZM154.986 45.1891L156.298 47.4501C156.771 48.265 157.307 48.7471 157.91 48.9032C158.513 49.0592 159.136 48.9462 159.785 48.5689C160.421 48.199 160.824 47.7157 160.993 47.1105C161.163 46.5088 161.012 45.7987 160.539 44.9839L159.227 42.7229L154.984 45.1857L154.986 45.1891Z" fill="#121212"/>
<path d="M153.084 57.596L166.69 52.435L168.373 56.8808C168.773 57.941 168.927 58.8867 168.825 59.7182C168.723 60.5496 168.431 61.2523 167.948 61.8281C167.464 62.4039 166.831 62.8425 166.053 63.137C165.173 63.4697 164.306 63.5456 163.457 63.3575C162.608 63.1694 161.855 62.6749 161.197 61.874L156.605 66.881L155.701 64.4927L160.098 59.8509L159.254 57.6186L153.873 59.6617L153.093 57.6042L153.084 57.596ZM161.113 56.9029L161.975 59.1742C162.327 60.1071 162.794 60.7106 163.371 60.9864C163.947 61.2622 164.576 61.2728 165.249 61.0185C165.935 60.7567 166.402 60.3347 166.649 59.7524C166.897 59.1701 166.836 58.4016 166.473 57.4432L165.623 55.1922L161.113 56.9029Z" fill="#121212"/>
<path d="M157.759 73.3996C157.531 72.2451 157.632 71.1866 158.064 70.2273C158.493 69.2647 159.216 68.4528 160.228 67.7847C161.241 67.1166 162.508 66.6333 164.029 66.3262C165.553 66.0224 166.907 65.9866 168.096 66.2117C169.288 66.4401 170.263 66.9142 171.028 67.6388C171.791 68.3601 172.289 69.3013 172.521 70.4539C172.751 71.6203 172.652 72.6822 172.222 73.6362C171.792 74.5903 171.069 75.4022 170.055 76.0669C169.043 76.735 167.776 77.2183 166.254 77.5255C164.731 77.8292 163.377 77.865 162.187 77.6399C160.996 77.4115 160.021 76.9374 159.258 76.2248C158.495 75.5121 157.995 74.5675 157.765 73.4011L157.759 73.3996ZM159.797 72.9937C160 74.0132 160.622 74.7415 161.663 75.1839C162.704 75.6262 164.087 75.6753 165.816 75.3294C167.541 74.9853 168.801 74.4094 169.593 73.6034C170.388 72.7956 170.682 71.8811 170.481 70.865C170.276 69.8335 169.655 69.1 168.615 68.6662C167.574 68.2325 166.193 68.1867 164.468 68.5308C162.743 68.8749 161.481 69.4475 160.687 70.2501C159.892 71.0494 159.6 71.9671 159.804 72.9986L159.797 72.9937Z" fill="#121212"/>
<path d="M159.095 85.3311C159.051 83.8393 159.437 82.677 160.25 81.8461C161.066 81.0186 162.204 80.5798 163.673 80.5379L163.738 82.7584C162.977 82.7941 162.339 83.0076 161.825 83.3987C161.31 83.7898 161.064 84.4065 161.09 85.2469C161.114 86.0615 161.387 86.6396 161.909 86.976C162.431 87.3124 163.074 87.4687 163.834 87.4468L173.951 87.1358L174.014 89.3357L163.898 89.6467C162.401 89.6948 161.237 89.3328 160.404 88.5712C159.57 87.8096 159.131 86.7268 159.09 85.3295L159.095 85.3311Z" fill="#121212"/>
<path d="M159.326 92.4472L173.741 94.3925L172.486 103.588L170.529 103.324L171.485 96.307L167.286 95.7399L166.413 102.137L164.479 101.877L165.353 95.4794L160.988 94.8894L160.032 101.906L158.075 101.641L159.33 92.4454L159.326 92.4472Z" fill="#121212"/>
<path d="M155.89 108.529C156.249 107.364 156.855 106.467 157.7 105.838C158.548 105.207 159.576 104.841 160.789 104.747C161.999 104.65 163.321 104.82 164.751 105.26C166.192 105.702 167.387 106.306 168.334 107.066C169.278 107.829 169.927 108.709 170.277 109.718C170.626 110.724 170.624 111.802 170.267 112.953C169.803 114.447 169.031 115.514 167.94 116.15C166.849 116.787 165.59 116.964 164.153 116.681L164.871 114.36C165.634 114.464 166.331 114.358 166.962 114.035C167.592 113.712 168.031 113.143 168.285 112.325C168.609 111.28 168.396 110.323 167.65 109.456C166.904 108.59 165.716 107.904 164.091 107.404C162.476 106.908 161.119 106.81 160.019 107.11C158.92 107.409 158.207 108.08 157.884 109.124C157.622 109.969 157.643 110.689 157.945 111.273C158.249 111.86 158.743 112.33 159.43 112.686L158.712 115.007C157.414 114.376 156.504 113.507 155.985 112.407C155.465 111.303 155.433 110.01 155.892 108.532L155.89 108.529Z" fill="#121212"/>
<path d="M152.211 118.587L163.454 124.197L165.201 120.704L166.966 121.587L162.48 130.54L160.715 129.657L162.463 126.164L151.22 120.554L152.206 118.586L152.211 118.587Z" fill="#121212"/>
<path d="M140.876 141.854C141.254 141.485 141.682 141.242 142.171 141.124C142.655 141.007 143.139 141.009 143.626 141.137C144.108 141.264 144.536 141.516 144.904 141.892C145.273 142.269 145.516 142.697 145.634 143.184C145.749 143.669 145.746 144.152 145.618 144.639C145.491 145.12 145.238 145.548 144.86 145.917C144.483 146.285 144.054 146.529 143.566 146.647C143.081 146.764 142.596 146.758 142.11 146.633C141.629 146.507 141.201 146.255 140.833 145.878C140.464 145.502 140.221 145.074 140.103 144.586C139.987 144.102 139.994 143.617 140.119 143.132C140.246 142.65 140.499 142.223 140.876 141.854Z" fill="#121212"/>
<path d="M122.435 150.311L128.71 163.416L120.293 167.45L119.406 165.596L125.837 162.513L123.92 158.506L118.521 161.094L117.687 159.355L123.086 156.767L120.452 151.265L122.44 150.312L122.435 150.311Z" fill="#121212"/>
<path d="M111.674 155.216L115.703 169.174L106.779 171.759L106.232 169.863L113.04 167.893L111.867 163.825L105.657 165.621L105.115 163.749L111.324 161.953L110.104 157.727L103.296 159.697L102.749 157.801L111.674 155.216Z" fill="#121212"/>
<path d="M101.263 158.181L98.6103 173.12L96.0105 173.421L90.0362 159.485L92.4096 159.211L93.7791 162.563L98.3217 162.035L98.8951 158.456L101.269 158.182L101.263 158.181ZM97.016 170.167L98.0263 163.844L94.473 164.255L96.8926 170.182L97.016 170.167Z" fill="#121212"/>
<path d="M84.8879 159.276L84.2431 171.823L88.1457 172.017L88.0439 173.988L78.0406 173.488L78.1424 171.517L82.045 171.712L82.6898 159.165L84.8912 159.274L84.8879 159.276Z" fill="#121212"/>
<path d="M72.119 157.42C73.0808 157.629 73.8922 158.013 74.5566 158.57C75.2211 159.126 75.6799 159.852 75.9402 160.752C76.2005 161.653 76.1894 162.715 75.9192 163.945L73.9429 172.953L71.7903 172.484L73.7932 163.356C74.0309 162.275 73.9552 161.383 73.5714 160.682C73.1875 159.981 72.5477 159.534 71.6554 159.339C70.7631 159.144 69.9933 159.285 69.3512 159.763C68.7073 160.238 68.2657 161.019 68.028 162.1L66.0251 171.228L63.8724 170.759L65.8487 161.751C66.1189 160.52 66.5655 159.549 67.1889 158.844C67.8106 158.135 68.5479 157.67 69.399 157.445C70.2501 157.22 71.1539 157.212 72.1157 157.422L72.119 157.42Z" fill="#121212"/>
<path d="M65.0204 155.917L59.6248 169.421L55.2052 167.665C54.1497 167.244 53.352 166.716 52.8054 166.087C52.2603 165.452 51.9406 164.764 51.8427 164.016C51.7465 163.271 51.8531 162.511 52.1589 161.739C52.5092 160.864 53.0421 160.178 53.7523 159.68C54.4625 159.181 55.3413 158.959 56.3766 159.014L55.7917 152.254L58.1649 153.198L58.6168 159.571L60.838 160.454L62.9725 155.11L65.0189 155.922L65.0204 155.917ZM60.1013 162.299L57.8451 161.4C56.9188 161.031 56.1587 160.965 55.5631 161.208C54.9657 161.447 54.5346 161.902 54.2679 162.57C53.9949 163.249 53.992 163.877 54.2542 164.452C54.5163 165.027 55.1226 165.502 56.0769 165.882L58.3155 166.773L60.1047 162.297L60.1013 162.299Z" fill="#121212"/>
<path d="M53.9543 151.27L46.4136 163.71L38.471 158.91L39.4959 157.222L45.5559 160.885L47.7533 157.259L42.2252 153.919L43.2369 152.248L48.765 155.588L51.0486 151.823L44.9886 148.16L46.0136 146.473L53.9562 151.274L53.9543 151.27Z" fill="#121212"/>
<path d="M44.2758 145.247L34.7856 156.274L32.1416 154.001C30.3688 152.479 29.4707 150.854 29.456 149.136C29.4395 147.414 30.1672 145.697 31.6408 143.988C33.1125 142.275 34.7026 141.299 36.409 141.058C38.1154 140.816 39.8557 141.453 41.6303 142.979L44.2743 145.252L44.2758 145.247ZM41.2782 145.359L40.366 144.574C39.0841 143.475 37.8507 143.042 36.6658 143.274C35.4808 143.507 34.3654 144.227 33.328 145.434C32.2907 146.642 31.7442 147.848 31.6902 149.056C31.6396 150.263 32.2536 151.416 33.5321 152.517L34.4443 153.302L41.2767 145.364L41.2782 145.359Z" fill="#121212"/>
<path d="M27.7167 127.913L15.1608 135.264L12.6755 131.021C12.117 130.065 11.8177 129.181 11.7844 128.367C11.7512 127.553 11.9315 126.832 12.3336 126.195C12.7357 125.559 13.3034 125.025 14.0453 124.592C14.7872 124.16 15.5311 123.923 16.2823 123.885C17.0301 123.848 17.752 124.044 18.4461 124.47C19.1368 124.898 19.7649 125.589 20.3234 126.545L21.6957 128.891L26.6104 126.012L27.7235 127.909L27.7167 127.913ZM19.9859 129.889L18.6634 127.633C18.1876 126.82 17.6483 126.34 17.0468 126.187C16.4453 126.034 15.8192 126.149 15.1734 126.525C14.5377 126.895 14.1389 127.385 13.968 127.986C13.799 128.592 13.9522 129.296 14.428 130.109L15.7505 132.365L19.9841 129.885L19.9859 129.889Z" fill="#121212"/>
<path d="M21.85 117.485L8.26537 122.7L6.56513 118.263C6.1613 117.205 6.00449 116.261 6.10145 115.428C6.20024 114.599 6.48956 113.893 6.97308 113.317C7.45476 112.738 8.08458 112.301 8.86409 112.001C9.74551 111.663 10.6072 111.586 11.4596 111.772C12.3101 111.955 13.067 112.448 13.7283 113.247L18.3027 108.223L19.2166 110.606L14.8371 115.264L15.6918 117.491L21.067 115.429L21.8534 117.483L21.85 117.485ZM13.8255 118.21L12.9572 115.943C12.6011 115.012 12.1313 114.41 11.5513 114.136C10.9712 113.862 10.3441 113.855 9.67327 114.113C8.98709 114.374 8.52218 114.8 8.27821 115.38C8.03424 115.961 8.09693 116.733 8.46259 117.689L9.32503 119.938L13.8289 118.209L13.8255 118.21Z" fill="#121212"/>
<path d="M17.1114 101.694C17.3431 102.847 17.2475 103.907 16.8211 104.867C16.3948 105.828 15.6756 106.647 14.6651 107.318C13.6547 107.99 12.3914 108.48 10.8717 108.79C9.35209 109.101 7.99653 109.142 6.80352 108.919C5.61051 108.695 4.63226 108.223 3.86541 107.504C3.09856 106.784 2.59594 105.85 2.36248 104.694C2.12686 103.526 2.22239 102.466 2.65247 101.512C3.08069 100.555 3.80018 99.7447 4.80878 99.0699C5.81922 98.3984 7.08257 97.9084 8.6022 97.5979C10.1218 97.2874 11.4774 97.2464 12.6704 97.4696C13.8634 97.6928 14.8398 98.1617 15.6063 98.8725C16.3729 99.5833 16.874 100.523 17.1096 101.691L17.1114 101.694ZM15.0738 102.108C14.8678 101.091 14.2419 100.364 13.1995 99.9272C12.1571 99.4901 10.7726 99.4462 9.04784 99.7988C7.32309 100.152 6.06474 100.731 5.27461 101.54C4.48448 102.35 4.19074 103.264 4.39675 104.282C4.60492 105.311 5.22929 106.043 6.27322 106.475C7.31531 106.903 8.69795 106.944 10.4212 106.596C12.1459 106.244 13.4027 105.67 14.1947 104.864C14.9885 104.061 15.2771 103.145 15.067 102.112L15.0738 102.108Z" fill="#121212"/>
<path d="M15.7316 89.7779C15.7811 91.2712 15.4 92.435 14.5918 93.2674C13.7836 94.0998 12.6424 94.5405 11.1736 94.591L11.0992 92.3708C11.859 92.3317 12.4985 92.1131 13.0129 91.7219C13.5273 91.3308 13.7681 90.7126 13.7407 89.8688C13.7142 89.0508 13.4401 88.478 12.9146 88.1434C12.3892 87.8089 11.7481 87.656 10.9862 87.6831L0.871167 88.037L0.799283 85.8374L10.9143 85.4835C12.409 85.432 13.5757 85.7836 14.4095 86.5452C15.2468 87.3049 15.6875 88.3825 15.7335 89.7813L15.7316 89.7779Z" fill="#121212"/>
<path d="M15.471 82.656L1.05112 80.7659L2.27116 71.5628L4.22829 71.819L3.29693 78.8399L7.50022 79.3912L8.34919 72.9895L10.2873 73.243L9.43831 79.6447L13.8059 80.2157L14.7373 73.1948L16.6944 73.451L15.4744 82.6542L15.471 82.656Z" fill="#121212"/>
<path d="M18.8396 66.5632C18.4862 67.7293 17.8853 68.6279 17.0388 69.2622C16.1923 69.8964 15.1657 70.2657 13.9536 70.3684C12.7415 70.4711 11.4214 70.3043 9.9899 69.8699C8.54794 69.4324 7.35155 68.8342 6.4007 68.0753C5.4517 67.3198 4.8011 66.436 4.44922 65.4325C4.09735 64.4289 4.09582 63.3519 4.44802 62.1996C4.9065 60.7042 5.67675 59.6341 6.76246 58.9959C7.84818 58.3578 9.10903 58.1758 10.545 58.45L9.83448 60.7756C9.06784 60.6739 8.37447 60.7862 7.74732 61.1076C7.12201 61.4324 6.67963 62.0032 6.43065 62.823C6.11244 63.8691 6.32823 64.8245 7.07801 65.6891C7.82779 66.5536 9.01689 67.2347 10.6468 67.7269C12.263 68.218 13.6217 68.3111 14.7197 68.008C15.8177 67.7048 16.5284 67.031 16.8466 65.9849C17.1066 65.1371 17.082 64.4188 16.7766 63.8368C16.4693 63.2514 15.9717 62.7833 15.2853 62.4273L15.9958 60.1017C17.2948 60.727 18.2098 61.5888 18.734 62.6907C19.2617 63.7908 19.2969 65.0816 18.8448 66.5647L18.8396 66.5632Z" fill="#121212"/>
<path d="M22.482 56.494L11.2204 50.9296L9.48514 54.4296L7.71728 53.5571L12.1662 44.5844L13.934 45.4569L12.1987 48.9569L23.4603 54.5213L22.482 56.494Z" fill="#121212"/>
<path d="M33.7204 33.188C33.3448 33.5602 32.9163 33.8035 32.4281 33.9218C31.9417 34.0435 31.4577 34.0411 30.976 33.9149C30.4944 33.7886 30.0651 33.5416 29.6932 33.1668C29.3213 32.7921 29.0783 32.3642 28.9606 31.8766C28.8395 31.3908 28.8424 30.9073 28.9695 30.4258C29.0947 29.9411 29.3443 29.5152 29.7199 29.1431C30.0955 28.771 30.524 28.5277 31.0122 28.4094C31.4986 28.2877 31.9844 28.2934 32.4676 28.4144C32.9526 28.5389 33.3785 28.7877 33.7504 29.1625C34.1224 29.5372 34.3653 29.9651 34.4831 30.4527C34.6042 30.9385 34.5978 31.4239 34.4742 31.9035C34.349 32.3883 34.0993 32.8141 33.7237 33.1862L33.7204 33.188Z" fill="#121212"/>
</svg>
