<?xml version="1.0" encoding="UTF-8" standalone="no"?>
<svg width="81px" height="24px" viewBox="0 0 81 24" version="1.1" xmlns="http://www.w3.org/2000/svg" xmlns:xlink="http://www.w3.org/1999/xlink" xmlns:sketch="http://www.bohemiancoding.com/sketch/ns">
    <!-- Generator: Sketch 3.3.2 (12043) - http://www.bohemiancoding.com/sketch -->
    <title>github-sprite</title>
    <desc>Created with Sketch.</desc>
    <defs></defs>
    <g id="Page-1" stroke="none" stroke-width="1" fill="none" fill-rule="evenodd" sketch:type="MSPage">
        <g id="sprites" sketch:type="MSArtboardGroup" transform="translate(-169.000000, -164.000000)">
            <g id="github-sprite" sketch:type="MSLayerGroup" transform="translate(169.000000, 164.000000)">
                <path d="M40.3738605,0 C33.5411922,0 28,5.5085046 28,12.3040642 C28,17.7400586 31.5454818,22.3512503 36.4629669,23.9781965 C37.0821158,24.0914936 37.3077443,23.7115707 37.3077443,23.385275 C37.3077443,23.0937239 37.2971086,22.3195271 37.291031,21.2930554 C33.8488674,22.0362843 33.122602,19.6434498 33.122602,19.6434498 C32.5596703,18.2219489 31.7483195,17.8435366 31.7483195,17.8435366 C30.6247353,17.0806696 31.833405,17.0957758 31.833405,17.0957758 C33.0755011,17.1826369 33.7288361,18.3639479 33.7288361,18.3639479 C34.8326683,20.2439244 36.625541,19.7008536 37.330535,19.3858877 C37.4429694,18.5912974 37.7627997,18.048982 38.1160564,17.7415693 C35.368251,17.4311352 32.479143,16.3752063 32.479143,11.6605367 C32.479143,10.3175885 32.9615473,9.2186067 33.7531462,8.35905943 C33.625518,8.04787008 33.2008502,6.79631488 33.8746969,5.10290101 C33.8746969,5.10290101 34.9131956,4.7720735 37.2773566,6.3642753 C38.2641963,6.09085165 39.3232067,5.95489514 40.3753798,5.94960794 C41.4267933,5.95489514 42.485044,6.09085165 43.4734031,6.3642753 C45.8360447,4.7720735 46.873024,5.10290101 46.873024,5.10290101 C47.5483901,6.79631488 47.1237223,8.04787008 46.9968538,8.35905943 C47.7899721,9.2186067 48.2685779,10.3175885 48.2685779,11.6605367 C48.2685779,16.3872913 45.3749118,17.4273587 42.6187498,17.7317502 C43.0624098,18.1116731 43.4582093,18.8624551 43.4582093,20.0105323 C43.4582093,21.6548508 43.4430154,22.9819374 43.4430154,23.385275 C43.4430154,23.7145919 43.6663648,24.0975361 44.2938703,23.9774412 C49.207557,22.3467184 52.75,17.738548 52.75,12.3040642 C52.75,5.5085046 47.2088078,0 40.3738605,0" id="Fill-3-Copy-2" fill="#FFFFFF" sketch:type="MSShapeGroup"></path>
                <path d="M12.3738605,0 C5.54119218,0 0,5.5085046 0,12.3040642 C0,17.7400586 3.54548175,22.3512503 8.46296694,23.9781965 C9.08211578,24.0914936 9.30774425,23.7115707 9.30774425,23.385275 C9.30774425,23.0937239 9.29710857,22.3195271 9.29103103,21.2930554 C5.84886737,22.0362843 5.12260198,19.6434498 5.12260198,19.6434498 C4.55967034,18.2219489 3.74831947,17.8435366 3.74831947,17.8435366 C2.62473526,17.0806696 3.83340495,17.0957758 3.83340495,17.0957758 C5.07550109,17.1826369 5.72883606,18.3639479 5.72883606,18.3639479 C6.83266828,20.2439244 8.62554099,19.7008536 9.33053501,19.3858877 C9.4429694,18.5912974 9.76279966,18.048982 10.1160564,17.7415693 C7.36825102,17.4311352 4.47914301,16.3752063 4.47914301,11.6605367 C4.47914301,10.3175885 4.96154732,9.2186067 5.7531462,8.35905943 C5.62551797,8.04787008 5.20085024,6.79631488 5.87469689,5.10290101 C5.87469689,5.10290101 6.91319562,4.7720735 9.27735658,6.3642753 C10.2641963,6.09085165 11.3232067,5.95489514 12.3753798,5.94960794 C13.4267933,5.95489514 14.485044,6.09085165 15.4734031,6.3642753 C17.8360447,4.7720735 18.873024,5.10290101 18.873024,5.10290101 C19.5483901,6.79631488 19.1237223,8.04787008 18.9968538,8.35905943 C19.7899721,9.2186067 20.2685779,10.3175885 20.2685779,11.6605367 C20.2685779,16.3872913 17.3749118,17.4273587 14.6187498,17.7317502 C15.0624098,18.1116731 15.4582093,18.8624551 15.4582093,20.0105323 C15.4582093,21.6548508 15.4430154,22.9819374 15.4430154,23.385275 C15.4430154,23.7145919 15.6663648,24.0975361 16.2938703,23.9774412 C21.207557,22.3467184 24.75,17.738548 24.75,12.3040642 C24.75,5.5085046 19.2088078,0 12.3738605,0" id="Fill-3-Copy-3" fill="#BD0FE1" sketch:type="MSShapeGroup"></path>
                <path d="M56,12.3040642 C56,17.7400586 59.5454818,22.3512503 64.4629669,23.9781965 C65.0821158,24.0914936 65.3077443,23.7115707 65.3077443,23.385275 C65.3077443,23.0937239 65.2971086,22.3195271 65.291031,21.2930554 C61.8488674,22.0362843 61.122602,19.6434498 61.122602,19.6434498 C60.5596703,18.2219489 59.7483195,17.8435366 59.7483195,17.8435366 C58.6247353,17.0806696 59.833405,17.0957758 59.833405,17.0957758 C61.0755011,17.1826369 61.7288361,18.3639479 61.7288361,18.3639479 C62.8326683,20.2439244 64.625541,19.7008536 65.330535,19.3858877 C65.4429694,18.5912974 65.7627997,18.048982 66.1160564,17.7415693 C63.368251,17.4311352 60.479143,16.3752063 60.479143,11.6605367 C60.479143,10.3175885 60.9615473,9.2186067 61.7531462,8.35905943 C61.625518,8.04787008 61.2008502,6.79631488 61.8746969,5.10290101 C61.8746969,5.10290101 62.9131956,4.7720735 65.2773566,6.3642753 C66.2641963,6.09085165 67.3232067,5.95489514 68.3753798,5.94960794 C69.4267933,5.95489514 70.485044,6.09085165 71.4734031,6.3642753 C73.8360447,4.7720735 74.873024,5.10290101 74.873024,5.10290101 C75.5483901,6.79631488 75.1237223,8.04787008 74.9968538,8.35905943 C75.7899721,9.2186067 76.2685779,10.3175885 76.2685779,11.6605367 C76.2685779,16.3872913 73.3749118,17.4273587 70.6187498,17.7317502 C71.0624098,18.1116731 71.4582093,18.8624551 71.4582093,20.0105323 C71.4582093,21.6548508 71.4430154,22.9819374 71.4430154,23.385275 C71.4430154,23.7145919 71.6663648,24.0975361 72.2938703,23.9774412 C77.207557,22.3467184 80.75,17.738548 80.75,12.3040642 C80.75,5.5085046 75.2088078,0 68.3738605,0 C61.5411922,0 56,5.5085046 56,12.3040642 Z" id="Fill-3-Copy-4" fill="#333333" sketch:type="MSShapeGroup"></path>
            </g>
        </g>
    </g>
</svg>