<?xml version="1.0" encoding="UTF-8" standalone="no"?>
<svg width="101px" height="32px" viewBox="0 0 101 32" version="1.1" xmlns="http://www.w3.org/2000/svg" xmlns:xlink="http://www.w3.org/1999/xlink" xmlns:sketch="http://www.bohemiancoding.com/sketch/ns">
    <!-- Generator: Sketch 3.3.2 (12043) - http://www.bohemiancoding.com/sketch -->
    <title>icon-github-sprite</title>
    <desc>Created with Sketch.</desc>
    <defs></defs>
    <g id="Page-1" stroke="none" stroke-width="1" fill="none" fill-rule="evenodd" sketch:type="MSPage">
        <g id="lil_desktop__projects_project" sketch:type="MSArtboardGroup" transform="translate(-156.000000, -1000.000000)">
            <g id="icon-github-sprite" sketch:type="MSLayerGroup" transform="translate(156.000000, 1000.000000)">
                <path d="M50.4984806,0 C41.3882562,0 34,7.3446728 34,16.4054189 C34,23.6534115 38.727309,29.801667 45.2839559,31.9709287 C46.1094877,32.1219915 46.4103257,31.6154276 46.4103257,31.1803667 C46.4103257,30.7916318 46.3961448,29.7593694 46.3880414,28.3907406 C41.7984898,29.3817125 40.830136,26.1912664 40.830136,26.1912664 C40.0795605,24.2959319 38.9977593,23.7913822 38.9977593,23.7913822 C37.499647,22.7742261 39.1112066,22.7943678 39.1112066,22.7943678 C40.7673348,22.9101826 41.6384481,24.4852639 41.6384481,24.4852639 C43.1102244,26.9918991 45.5007213,26.2678048 46.4407133,25.8478503 C46.5906259,24.7883966 47.0170662,24.0653094 47.4880751,23.6554257 C43.8243347,23.2415136 39.9721907,21.8336084 39.9721907,15.5473822 C39.9721907,13.7567847 40.6153964,12.2914756 41.6708616,11.1454126 C41.5006906,10.7304934 40.934467,9.06175317 41.8329292,6.80386802 C41.8329292,6.80386802 43.2175942,6.36276467 46.3698088,8.4857004 C47.685595,8.12113554 49.0976089,7.93986019 50.5005065,7.93281059 C51.9023911,7.93986019 53.3133921,8.12113554 54.6312041,8.4857004 C57.7813929,6.36276467 59.164032,6.80386802 59.164032,6.80386802 C60.0645201,9.06175317 59.4982964,10.7304934 59.3291384,11.1454126 C60.3866294,12.2914756 61.0247706,13.7567847 61.0247706,15.5473822 C61.0247706,21.8497218 57.166549,23.2364782 53.4916664,23.6423336 C54.0832131,24.1488974 54.6109457,25.1499402 54.6109457,26.6807098 C54.6109457,28.8731344 54.5906873,30.6425832 54.5906873,31.1803667 C54.5906873,31.6194559 54.8884864,32.1300481 55.7251604,31.9699216 C62.2767427,29.7956245 67,23.6513973 67,16.4054189 C67,7.3446728 59.6117438,0 50.4984806,0" id="Fill-3-Copy-2" fill="#FFFFFF" sketch:type="MSShapeGroup"></path>
                <path d="M16.4984806,0 C7.38825624,0 0,7.3446728 0,16.4054189 C0,23.6534115 4.727309,29.801667 11.2839559,31.9709287 C12.1094877,32.1219915 12.4103257,31.6154276 12.4103257,31.1803667 C12.4103257,30.7916318 12.3961448,29.7593694 12.3880414,28.3907406 C7.79848982,29.3817125 6.83013598,26.1912664 6.83013598,26.1912664 C6.07956045,24.2959319 4.99775929,23.7913822 4.99775929,23.7913822 C3.49964701,22.7742261 5.11120661,22.7943678 5.11120661,22.7943678 C6.76733479,22.9101826 7.63844808,24.4852639 7.63844808,24.4852639 C9.11022438,26.9918991 11.5007213,26.2678048 12.4407133,25.8478503 C12.5906259,24.7883966 13.0170662,24.0653094 13.4880751,23.6554257 C9.82433469,23.2415136 5.97219067,21.8336084 5.97219067,15.5473822 C5.97219067,13.7567847 6.61539642,12.2914756 7.6708616,11.1454126 C7.50069063,10.7304934 6.93446699,9.06175317 7.83292919,6.80386802 C7.83292919,6.80386802 9.21759416,6.36276467 12.3698088,8.4857004 C13.685595,8.12113554 15.0976089,7.93986019 16.5005065,7.93281059 C17.9023911,7.93986019 19.3133921,8.12113554 20.6312041,8.4857004 C23.7813929,6.36276467 25.164032,6.80386802 25.164032,6.80386802 C26.0645201,9.06175317 25.4982964,10.7304934 25.3291384,11.1454126 C26.3866294,12.2914756 27.0247706,13.7567847 27.0247706,15.5473822 C27.0247706,21.8497218 23.166549,23.2364782 19.4916664,23.6423336 C20.0832131,24.1488974 20.6109457,25.1499402 20.6109457,26.6807098 C20.6109457,28.8731344 20.5906873,30.6425832 20.5906873,31.1803667 C20.5906873,31.6194559 20.8884864,32.1300481 21.7251604,31.9699216 C28.2767427,29.7956245 33,23.6513973 33,16.4054189 C33,7.3446728 25.6117438,0 16.4984806,0" id="Fill-3-Copy-3" fill="#BD0FE1" sketch:type="MSShapeGroup"></path>
                <path d="M84.4984806,0 C75.3882562,0 68,7.3446728 68,16.4054189 C68,23.6534115 72.727309,29.801667 79.2839559,31.9709287 C80.1094877,32.1219915 80.4103257,31.6154276 80.4103257,31.1803667 C80.4103257,30.7916318 80.3961448,29.7593694 80.3880414,28.3907406 C75.7984898,29.3817125 74.830136,26.1912664 74.830136,26.1912664 C74.0795605,24.2959319 72.9977593,23.7913822 72.9977593,23.7913822 C71.499647,22.7742261 73.1112066,22.7943678 73.1112066,22.7943678 C74.7673348,22.9101826 75.6384481,24.4852639 75.6384481,24.4852639 C77.1102244,26.9918991 79.5007213,26.2678048 80.4407133,25.8478503 C80.5906259,24.7883966 81.0170662,24.0653094 81.4880751,23.6554257 C77.8243347,23.2415136 73.9721907,21.8336084 73.9721907,15.5473822 C73.9721907,13.7567847 74.6153964,12.2914756 75.6708616,11.1454126 C75.5006906,10.7304934 74.934467,9.06175317 75.8329292,6.80386802 C75.8329292,6.80386802 77.2175942,6.36276467 80.3698088,8.4857004 C81.685595,8.12113554 83.0976089,7.93986019 84.5005065,7.93281059 C85.9023911,7.93986019 87.3133921,8.12113554 88.6312041,8.4857004 C91.7813929,6.36276467 93.164032,6.80386802 93.164032,6.80386802 C94.0645201,9.06175317 93.4982964,10.7304934 93.3291384,11.1454126 C94.3866294,12.2914756 95.0247706,13.7567847 95.0247706,15.5473822 C95.0247706,21.8497218 91.166549,23.2364782 87.4916664,23.6423336 C88.0832131,24.1488974 88.6109457,25.1499402 88.6109457,26.6807098 C88.6109457,28.8731344 88.5906873,30.6425832 88.5906873,31.1803667 C88.5906873,31.6194559 88.8884864,32.1300481 89.7251604,31.9699216 C96.2767427,29.7956245 101,23.6513973 101,16.4054189 C101,7.3446728 93.6117438,0 84.4984806,0" id="Fill-3-Copy-4" fill="#434033" sketch:type="MSShapeGroup"></path>
            </g>
        </g>
    </g>
</svg>