<?xml version="1.0" encoding="UTF-8" standalone="no"?>
<svg
   width="81px"
   height="24px"
   viewBox="0 0 81 24"
   version="1.1"
   id="svg1"
   sodipodi:docname="mastodon-sprite-work.svg"
   inkscape:version="1.3.2 (091e20e, 2023-11-25)"
   xmlns:inkscape="http://www.inkscape.org/namespaces/inkscape"
   xmlns:sodipodi="http://sodipodi.sourceforge.net/DTD/sodipodi-0.dtd"
   xmlns="http://www.w3.org/2000/svg"
   xmlns:svg="http://www.w3.org/2000/svg">
  <sodipodi:namedview
     id="namedview1"
     pagecolor="#ffffff"
     bordercolor="#000000"
     borderopacity="0.25"
     inkscape:showpageshadow="2"
     inkscape:pageopacity="0.0"
     inkscape:pagecheckerboard="0"
     inkscape:deskcolor="#d1d1d1"
     inkscape:zoom="9.8333333"
     inkscape:cx="40.525424"
     inkscape:cy="11.949153"
     inkscape:window-width="1568"
     inkscape:window-height="702"
     inkscape:window-x="0"
     inkscape:window-y="38"
     inkscape:window-maximized="0"
     inkscape:current-layer="svg1" />
  <!-- Generator: Sketch 3.3.2 (12043) - http://www.bohemiancoding.com/sketch -->
  <title
     id="title1">github-sprite</title>
  <desc
     id="desc1">Created with Sketch.</desc>
  <defs
     id="defs1" />
  <path
     d="m 16.884068,18.085952 c 2.781368,-0.355936 5.201267,-2.187519 5.50479,-3.860412 0.480116,-2.636886 0.441486,-6.4350112 0.441486,-6.4350112 0,-5.1462277 -3.153873,-6.6559857 -3.153873,-6.6559857 C 18.08712,0.35296898 15.3568,0.02521206 12.520247,0 h -0.06898 C 9.6133342,0.0252125 6.8843932,0.35296898 5.2950402,1.1345431 c 0,0 -3.152492,1.5082749 -3.152492,6.6559857 l -0.0028,0.9817884 c -0.0055,0.9491594 -0.0097,2.0021348 0.01518,3.1010838 0.114511,5.033516 0.863659,9.995844 5.215064,11.226787 2.006006,0.568012 3.7291838,0.686657 5.1171058,0.605089 2.515096,-0.148307 3.927853,-0.959543 3.927853,-0.959543 l -0.08277,-1.953194 c 0,0 -1.797679,0.608056 -3.817482,0.533904 -2.000495,-0.07415 -4.1113548,-0.231358 -4.4355718,-2.859346 a 5.5185856,5.9322514 0 0 1 -0.04553,-0.735599 c 0,0 1.964617,0.513141 4.4534978,0.634751 1.521749,0.07416 2.948304,-0.09492 4.398312,-0.280298 z m 2.225369,-3.663166 H 16.80129 V 8.3718897 c 0,-1.273951 -0.502193,-1.9205664 -1.505195,-1.9205664 -1.109235,0 -1.665232,0.7667436 -1.665232,2.2853997 v 3.31168 H 11.335131 V 8.7352405 c 0,-1.5186567 -0.555996,-2.2854001 -1.6652328,-2.2854001 -1.003003,0 -1.505194,0.6466153 -1.505194,1.9220493 V 14.421304 H 5.8565552 V 8.1894725 q 0,-1.9101844 0.910567,-3.034346 c 0.629118,-0.7489468 1.451388,-1.1330601 2.473706,-1.1330601 1.1809778,0 2.0749878,0.4864446 2.6668558,1.4578508 l 0.575312,1.0307286 0.575313,-1.0307286 c 0.591869,-0.9714062 1.485879,-1.4578508 2.668236,-1.4578508 1.020937,0 1.843208,0.3841133 2.470946,1.1330601 q 0.913326,1.1226785 0.911946,3.034346 z"
     id="path2"
     style="fill:#bd0fe1;fill-opacity:1;stroke-width:1.43043" />
  <path
     d="m 72.968857,18.102901 c 2.781368,-0.355936 5.201267,-2.187519 5.50479,-3.860412 0.480116,-2.636886 0.441486,-6.4350108 0.441486,-6.4350108 0,-5.1462279 -3.153873,-6.6559859 -3.153873,-6.6559859 C 74.171909,0.36991815 71.441589,0.04216115 68.605036,0.01694915 h -0.06898 c -2.837934,0.025213 -5.566874,0.352969 -7.156227,1.13454315 0,0 -3.152492,1.5082749 -3.152492,6.6559859 l -0.0028,0.981788 c -0.0055,0.94916 -0.0097,2.0021348 0.01518,3.1010838 0.114511,5.033516 0.863659,9.995844 5.215064,11.226787 2.006005,0.568012 3.729184,0.686657 5.117107,0.605089 2.515096,-0.148307 3.927853,-0.959543 3.927853,-0.959543 l -0.08277,-1.953194 c 0,0 -1.797679,0.608056 -3.817482,0.533904 -2.000497,-0.07415 -4.111356,-0.231358 -4.435573,-2.859346 a 5.5185856,5.9322514 0 0 1 -0.04553,-0.735599 c 0,0 1.964617,0.513141 4.453499,0.634751 1.521749,0.07416 2.948304,-0.09492 4.398312,-0.280298 z m 2.225369,-3.663166 H 72.886079 V 8.3888392 c 0,-1.273951 -0.502193,-1.920567 -1.505195,-1.920567 -1.109235,0 -1.665232,0.766744 -1.665232,2.2854 V 12.065352 H 67.41992 V 8.7521902 c 0,-1.518657 -0.555998,-2.285401 -1.665233,-2.285401 -1.003003,0 -1.505194,0.646616 -1.505194,1.92205 V 14.438253 H 61.941344 V 8.2064222 q 0,-1.910185 0.910567,-3.034346 c 0.629118,-0.7489473 1.451388,-1.1330606 2.473706,-1.1330606 1.180977,0 2.074988,0.4864446 2.666856,1.4578506 l 0.575312,1.030729 0.575313,-1.030729 c 0.591869,-0.971406 1.485879,-1.4578506 2.668236,-1.4578506 1.020937,0 1.843208,0.3841133 2.470946,1.1330606 q 0.913326,1.122678 0.911946,3.034346 z"
     id="path3"
     style="fill:#333333;fill-opacity:1;stroke-width:1.43043" />
  <path
     d="m 45.731569,18.170698 c 2.781368,-0.355936 5.201267,-2.187519 5.50479,-3.860412 0.480116,-2.636886 0.441486,-6.4350114 0.441486,-6.4350114 0,-5.1462277 -3.153873,-6.6559857 -3.153873,-6.6559857 C 46.934621,0.43771476 44.204301,0.10995786 41.367748,0.08474576 h -0.06898 c -2.837934,0.025213 -5.566874,0.352969 -7.156227,1.13454314 0,0 -3.152492,1.5082749 -3.152492,6.6559857 l -0.0028,0.9817884 c -0.0055,0.9491598 -0.0097,2.002135 0.01518,3.101084 0.114511,5.033516 0.863659,9.995844 5.215064,11.226787 2.006005,0.568012 3.729184,0.686657 5.117107,0.605089 2.515096,-0.148307 3.927853,-0.959543 3.927853,-0.959543 l -0.08277,-1.953194 c 0,0 -1.797679,0.608056 -3.817482,0.533904 -2.000497,-0.07415 -4.111356,-0.231358 -4.435573,-2.859346 a 5.5185856,5.9322514 0 0 1 -0.04553,-0.735599 c 0,0 1.964617,0.513141 4.453499,0.634751 1.521749,0.07416 2.948304,-0.09492 4.398312,-0.280298 z m 2.225369,-3.663166 H 45.648791 V 8.4566355 c 0,-1.273951 -0.502193,-1.9205664 -1.505195,-1.9205664 -1.109235,0 -1.665232,0.7667436 -1.665232,2.2853997 V 12.133149 H 40.182632 V 8.8199863 c 0,-1.5186567 -0.555998,-2.2854001 -1.665233,-2.2854001 -1.003003,0 -1.505194,0.6466153 -1.505194,1.9220493 V 14.50605 H 34.704056 V 8.2742183 q 0,-1.9101844 0.910567,-3.034346 c 0.629118,-0.7489468 1.451388,-1.1330601 2.473706,-1.1330601 1.180977,0 2.074988,0.4864446 2.666856,1.4578508 L 41.330497,6.5953916 41.90581,5.564663 c 0.591869,-0.9714062 1.485879,-1.4578508 2.668236,-1.4578508 1.020937,0 1.843208,0.3841133 2.470946,1.1330601 q 0.913326,1.1226785 0.911946,3.034346 z"
     id="path3-4"
     style="fill:#000000;fill-opacity:0;stroke-width:1.43043" />
</svg>
