<?xml version="1.0" encoding="UTF-8" standalone="no"?>
<svg
   width="81px"
   height="24px"
   viewBox="0 0 81 24"
   version="1.1"
   id="svg1"
   sodipodi:docname="mastodon-sprite.svg"
   inkscape:version="1.3.2 (091e20e, 2023-11-25)"
   xmlns:inkscape="http://www.inkscape.org/namespaces/inkscape"
   xmlns:sodipodi="http://sodipodi.sourceforge.net/DTD/sodipodi-0.dtd"
   xmlns="http://www.w3.org/2000/svg"
   xmlns:svg="http://www.w3.org/2000/svg"
   xmlns:rdf="http://www.w3.org/1999/02/22-rdf-syntax-ns#"
   xmlns:cc="http://creativecommons.org/ns#"
   xmlns:dc="http://purl.org/dc/elements/1.1/"
   xmlns:sketch="http://www.bohemiancoding.com/sketch/ns">
  <sodipodi:namedview
     id="namedview1"
     pagecolor="#ffffff"
     bordercolor="#000000"
     borderopacity="0.25"
     inkscape:showpageshadow="2"
     inkscape:pageopacity="0.0"
     inkscape:pagecheckerboard="0"
     inkscape:deskcolor="#d1d1d1"
     showgrid="false"
     showguides="false"
     inkscape:zoom="9.8333333"
     inkscape:cx="40.525424"
     inkscape:cy="12"
     inkscape:window-width="1448"
     inkscape:window-height="785"
     inkscape:window-x="0"
     inkscape:window-y="38"
     inkscape:window-maximized="0"
     inkscape:current-layer="svg1" />
  <!-- Generator: Sketch 3.3.2 (12043) - http://www.bohemiancoding.com/sketch -->
  <title
     id="title1">github-sprite</title>
  <desc
     id="desc1">Created with Sketch.</desc>
  <defs
     id="defs1" />
  <g
     id="Page-1"
     stroke="none"
     stroke-width="1"
     fill="none"
     fill-rule="evenodd"
     sketch:type="MSPage">
    <g
       id="sprites"
       sketch:type="MSArtboardGroup"
       transform="translate(-169.000000, -164.000000)">
      <g
         id="github-sprite"
         sketch:type="MSLayerGroup"
         transform="translate(169.000000, 164.000000)">
        <path
           d="M40.3738605,0 C33.5411922,0 28,5.5085046 28,12.3040642 C28,17.7400586 31.5454818,22.3512503 36.4629669,23.9781965 C37.0821158,24.0914936 37.3077443,23.7115707 37.3077443,23.385275 C37.3077443,23.0937239 37.2971086,22.3195271 37.291031,21.2930554 C33.8488674,22.0362843 33.122602,19.6434498 33.122602,19.6434498 C32.5596703,18.2219489 31.7483195,17.8435366 31.7483195,17.8435366 C30.6247353,17.0806696 31.833405,17.0957758 31.833405,17.0957758 C33.0755011,17.1826369 33.7288361,18.3639479 33.7288361,18.3639479 C34.8326683,20.2439244 36.625541,19.7008536 37.330535,19.3858877 C37.4429694,18.5912974 37.7627997,18.048982 38.1160564,17.7415693 C35.368251,17.4311352 32.479143,16.3752063 32.479143,11.6605367 C32.479143,10.3175885 32.9615473,9.2186067 33.7531462,8.35905943 C33.625518,8.04787008 33.2008502,6.79631488 33.8746969,5.10290101 C33.8746969,5.10290101 34.9131956,4.7720735 37.2773566,6.3642753 C38.2641963,6.09085165 39.3232067,5.95489514 40.3753798,5.94960794 C41.4267933,5.95489514 42.485044,6.09085165 43.4734031,6.3642753 C45.8360447,4.7720735 46.873024,5.10290101 46.873024,5.10290101 C47.5483901,6.79631488 47.1237223,8.04787008 46.9968538,8.35905943 C47.7899721,9.2186067 48.2685779,10.3175885 48.2685779,11.6605367 C48.2685779,16.3872913 45.3749118,17.4273587 42.6187498,17.7317502 C43.0624098,18.1116731 43.4582093,18.8624551 43.4582093,20.0105323 C43.4582093,21.6548508 43.4430154,22.9819374 43.4430154,23.385275 C43.4430154,23.7145919 43.6663648,24.0975361 44.2938703,23.9774412 C49.207557,22.3467184 52.75,17.738548 52.75,12.3040642 C52.75,5.5085046 47.2088078,0 40.3738605,0"
           id="Fill-3-Copy-2"
           fill="#FFFFFF"
           sketch:type="MSShapeGroup" />
      </g>
    </g>
  </g>
  <metadata
     id="metadata1">
    <rdf:RDF>
      <cc:Work
         rdf:about="">
        <dc:title>github-sprite</dc:title>
      </cc:Work>
    </rdf:RDF>
  </metadata>
  <path
     d="m 16.83322,18.221545 c 2.781368,-0.355936 5.201267,-2.187519 5.50479,-3.860412 0.480116,-2.636886 0.441486,-6.435011 0.441486,-6.435011 0,-5.1462277 -3.153873,-6.6559857 -3.153873,-6.6559857 C 18.036272,0.48856216 15.305952,0.16080524 12.469399,0.13559318 h -0.06898 C 9.5624859,0.16080568 6.833545,0.48856216 5.2441923,1.2701363 c 0,0 -3.1524921,1.5082749 -3.1524921,6.6559857 l -0.00276,0.9817884 c -0.00552,0.9491594 -0.00966,2.0021346 0.015176,3.1010836 0.1145107,5.033516 0.8636587,9.995844 5.2150635,11.226787 2.0060061,0.568012 3.7291843,0.686657 5.1171063,0.605089 2.515096,-0.148307 3.927853,-0.959543 3.927853,-0.959543 l -0.08277,-1.953194 c 0,0 -1.797679,0.608056 -3.817482,0.533904 -2.000496,-0.07415 -4.1113547,-0.231358 -4.4355716,-2.859346 a 5.5185856,5.9322514 0 0 1 -0.045528,-0.735599 c 0,0 1.9646164,0.513141 4.4534976,0.634751 1.521749,0.07416 2.948304,-0.09492 4.398312,-0.280298 z m 2.225369,-3.663166 H 16.750442 V 8.5074829 c 0,-1.273951 -0.502193,-1.9205664 -1.505195,-1.9205664 -1.109235,0 -1.665232,0.7667436 -1.665232,2.2853997 V 12.183996 H 11.284283 V 8.8708337 c 0,-1.5186567 -0.555997,-2.2854001 -1.6652331,-2.2854001 -1.003003,0 -1.5051942,0.6466153 -1.5051942,1.9220493 V 14.556897 H 5.8057072 V 8.3250657 q 0,-1.9101844 0.9105666,-3.034346 C 7.3453925,4.5417729 8.1676619,4.1576596 9.1899799,4.1576596 c 1.1809771,0 2.0749881,0.4864446 2.6668561,1.4578508 l 0.575312,1.0307286 0.575313,-1.0307286 c 0.591869,-0.9714062 1.485879,-1.4578508 2.668236,-1.4578508 1.020937,0 1.843208,0.3841133 2.470946,1.1330601 q 0.913326,1.1226785 0.911946,3.034346 z"
     id="path2"
     style="fill:#bd0fe1;fill-opacity:1;stroke-width:1.43043" />
  <path
     d="m 74.799322,18.221545 c 2.781368,-0.355936 5.201267,-2.187519 5.50479,-3.860412 0.480116,-2.636886 0.441486,-6.435011 0.441486,-6.435011 0,-5.1462277 -3.153873,-6.6559857 -3.153873,-6.6559857 C 76.002374,0.48856216 73.272054,0.16080524 70.435501,0.13559318 h -0.06898 c -2.837934,0.0252125 -5.566874,0.35296898 -7.156227,1.13454312 0,0 -3.152492,1.5082749 -3.152492,6.6559857 l -0.0028,0.9817884 c -0.0055,0.9491594 -0.0097,2.0021346 0.01518,3.1010836 0.114511,5.033516 0.863659,9.995844 5.215064,11.226787 2.006005,0.568012 3.729184,0.686657 5.117107,0.605089 2.515096,-0.148307 3.927853,-0.959543 3.927853,-0.959543 l -0.08277,-1.953194 c 0,0 -1.797679,0.608056 -3.817482,0.533904 -2.000497,-0.07415 -4.111356,-0.231358 -4.435573,-2.859346 a 5.5185856,5.9322514 0 0 1 -0.04553,-0.735599 c 0,0 1.964617,0.513141 4.453499,0.634751 1.521749,0.07416 2.948304,-0.09492 4.398312,-0.280298 z m 2.225369,-3.663166 H 74.716544 V 8.5074829 c 0,-1.273951 -0.502193,-1.9205664 -1.505195,-1.9205664 -1.109235,0 -1.665232,0.7667436 -1.665232,2.2853997 V 12.183996 H 69.250385 V 8.8708337 c 0,-1.5186567 -0.555997,-2.2854001 -1.665233,-2.2854001 -1.003003,0 -1.505194,0.6466153 -1.505194,1.9220493 V 14.556897 H 63.771809 V 8.3250657 q 0,-1.9101844 0.910567,-3.034346 c 0.629118,-0.7489468 1.451388,-1.1330601 2.473706,-1.1330601 1.180977,0 2.074988,0.4864446 2.666856,1.4578508 L 70.39825,6.646239 70.973563,5.6155104 c 0.591869,-0.9714062 1.485879,-1.4578508 2.668236,-1.4578508 1.020937,0 1.843208,0.3841133 2.470946,1.1330601 q 0.913326,1.1226785 0.911946,3.034346 z"
     id="path1"
     style="stroke-width:1.43043;fill:none;fill-opacity:1" />
  <path
     d="m 72.66373,18.221545 c 2.781368,-0.355936 5.201267,-2.187519 5.50479,-3.860412 0.480116,-2.636886 0.441486,-6.435011 0.441486,-6.435011 0,-5.1462277 -3.153873,-6.6559857 -3.153873,-6.6559857 C 73.866782,0.48856216 71.136462,0.16080524 68.299909,0.13559318 h -0.06898 c -2.837934,0.0252125 -5.566874,0.35296898 -7.156227,1.13454312 0,0 -3.152492,1.5082749 -3.152492,6.6559857 l -0.0028,0.9817884 c -0.0055,0.9491594 -0.0097,2.0021346 0.01518,3.1010836 0.114511,5.033516 0.863659,9.995844 5.215064,11.226787 2.006005,0.568012 3.729184,0.686657 5.117107,0.605089 2.515096,-0.148307 3.927853,-0.959543 3.927853,-0.959543 l -0.08277,-1.953194 c 0,0 -1.797679,0.608056 -3.817482,0.533904 -2.000497,-0.07415 -4.111356,-0.231358 -4.435573,-2.859346 a 5.5185856,5.9322514 0 0 1 -0.04553,-0.735599 c 0,0 1.964617,0.513141 4.453499,0.634751 1.521749,0.07416 2.948304,-0.09492 4.398312,-0.280298 z m 2.225369,-3.663166 H 72.580952 V 8.5074829 c 0,-1.273951 -0.502193,-1.9205664 -1.505195,-1.9205664 -1.109235,0 -1.665232,0.7667436 -1.665232,2.2853997 V 12.183996 H 67.114793 V 8.8708337 c 0,-1.5186567 -0.555998,-2.2854001 -1.665233,-2.2854001 -1.003003,0 -1.505194,0.6466153 -1.505194,1.9220493 V 14.556897 H 61.636217 V 8.3250657 q 0,-1.9101844 0.910567,-3.034346 c 0.629118,-0.7489468 1.451388,-1.1330601 2.473706,-1.1330601 1.180977,0 2.074988,0.4864446 2.666856,1.4578508 l 0.575312,1.0307286 0.575313,-1.0307286 c 0.591869,-0.9714062 1.485879,-1.4578508 2.668236,-1.4578508 1.020937,0 1.843208,0.3841133 2.470946,1.1330601 q 0.913326,1.1226785 0.911946,3.034346 z"
     id="path3"
     style="fill:#333333;fill-opacity:1;stroke-width:1.43043" />
</svg>
