<svg width="356" height="164" viewBox="0 0 356 164" fill="none" xmlns="http://www.w3.org/2000/svg">
<g clip-path="url(#clip0_524_3531)">
<path d="M331.357 23.9916C315.892 8.51269 295.32 0 273.442 0C251.565 0 230.992 8.51269 215.528 23.9916L157.585 81.8779L157.613 81.9063L119.76 119.759C109.644 129.875 96.2081 135.437 81.9068 135.437C67.6054 135.437 54.1696 129.875 44.0537 119.759C33.9377 109.643 28.3761 96.2076 28.3761 81.9063C28.3761 67.6049 33.9377 54.1691 44.0537 44.0532C54.1696 33.9373 67.6054 28.3756 81.9068 28.3756C96.2081 28.3756 109.644 33.9373 119.76 44.0532L157.542 81.8353V41.698L139.821 23.9774C124.357 8.51269 103.784 0 81.9068 0C60.0291 0 39.4568 8.51269 23.9921 23.9916C8.51318 39.4563 0.000488281 60.0287 0.000488281 81.9063C0.000488281 103.784 8.51318 124.356 23.9921 139.821C39.4568 155.286 60.0291 163.813 81.9068 163.813C103.784 163.813 124.357 155.3 139.821 139.821L197.764 81.9346L197.736 81.9063L235.589 44.0532C245.705 33.9373 259.141 28.3756 273.442 28.3756C287.744 28.3756 301.179 33.9373 311.295 44.0532C321.411 54.1691 326.973 67.6049 326.973 81.9063C326.973 96.2076 321.411 109.643 311.295 119.759C301.179 129.875 287.744 135.437 273.442 135.437C259.141 135.437 245.705 129.875 235.589 119.759L197.807 81.9772V122.115L215.528 139.835C230.992 155.3 251.565 163.827 273.442 163.827C295.32 163.827 315.892 155.314 331.357 139.835C346.822 124.37 355.349 103.798 355.349 81.9205C355.349 60.0428 346.836 39.4705 331.357 24.0058V23.9916Z" fill="#121212"/>
</g>
<defs>
<clipPath id="clip0_524_3531">
<rect width="355.348" height="163.813" fill="white"/>
</clipPath>
</defs>
</svg>
