<svg width="199" height="199" viewBox="0 0 199 199" fill="none" xmlns="http://www.w3.org/2000/svg">
<path fill-rule="evenodd" clip-rule="evenodd" d="M99.3203 0C44.5547 0 0 44.5547 0 99.3203C0 154.082 44.5547 198.637 99.3203 198.637C154.086 198.637 198.641 154.082 198.641 99.3203C198.641 44.5547 154.086 0 99.3203 0ZM99.3203 178.637C55.5781 178.637 20 143.055 20 99.3203C20 55.582 55.5781 20 99.3203 20C143.055 20 178.641 55.582 178.641 99.3203C178.641 143.055 143.055 178.637 99.3203 178.637ZM99.3281 36.2695C64.5547 36.2695 36.2734 64.5547 36.2734 99.3203C36.2734 134.086 64.5547 162.371 99.3281 162.371C134.094 162.371 162.375 134.086 162.375 99.3203C162.375 64.5547 134.094 36.2695 99.3281 36.2695ZM99.3281 142.371C75.5859 142.371 56.2734 123.059 56.2734 99.3203C56.2734 75.582 75.5859 56.2695 99.3281 56.2695C123.062 56.2695 142.375 75.582 142.375 99.3203C142.375 123.059 123.062 142.371 99.3281 142.371ZM85.4219 90.4609L99.3203 76.5625L113.219 90.4609L104.062 99.6172L113.219 120.508H85.4219L94.5781 99.6172L85.4219 90.4609Z" fill="#231F20"/>
</svg>
