<?xml version="1.0" encoding="UTF-8" standalone="no"?>
<svg width="80px" height="24px" viewBox="0 0 80 24" version="1.1" xmlns="http://www.w3.org/2000/svg" xmlns:xlink="http://www.w3.org/1999/xlink" xmlns:sketch="http://www.bohemiancoding.com/sketch/ns">
    <!-- Generator: Sketch 3.3.2 (12043) - http://www.bohemiancoding.com/sketch -->
    <title>twitter-sprite</title>
    <desc>Created with Sketch.</desc>
    <defs></defs>
    <g id="Page-1" stroke="none" stroke-width="1" fill="none" fill-rule="evenodd" sketch:type="MSPage">
        <g id="sprites" sketch:type="MSArtboardGroup" transform="translate(-169.000000, -200.000000)">
            <g id="twitter-sprite" sketch:type="MSLayerGroup" transform="translate(169.000000, 200.000000)">
                <path d="M12,24 C18.627417,24 24,18.627417 24,12 C24,5.372583 18.627417,0 12,0 C5.372583,0 0,5.372583 0,12 C0,18.627417 5.372583,24 12,24 Z M19.8780611,7.97777235 C19.3339887,8.22071253 18.7492961,8.38490545 18.1356122,8.45875143 C18.7620068,8.08069925 19.2430125,7.48208942 19.4695335,6.76884406 C18.8833805,7.11885001 18.2341067,7.37306314 17.5430768,7.51008118 C16.9896472,6.91642709 16.2012046,6.54545455 15.328655,6.54545455 C13.6531672,6.54545455 12.2947981,7.91307543 12.2947981,9.59993311 C12.2947981,9.83933348 12.3216799,10.0724711 12.3733881,10.296024 C9.85201614,10.1686451 7.6166081,8.95258276 6.12031425,7.10458184 C5.85917679,7.55571756 5.70956905,8.08042696 5.70956905,8.64020776 C5.70956905,9.69991925 6.24520373,10.6348659 7.05922999,11.1826113 C6.56188969,11.1667639 6.0941356,11.0293646 5.68506713,10.8005837 C5.68485077,10.813327 5.68485077,10.8261248 5.68485077,10.838977 C5.68485077,12.3189462 6.73059055,13.5535245 8.1184377,13.8340957 C7.86384491,13.9039117 7.59583826,13.9412159 7.31912342,13.9412159 C7.12364894,13.9412159 6.93358327,13.9221009 6.74838554,13.8864304 C7.13441248,15.0999877 8.25479386,15.9830897 9.58233276,16.0077595 C8.54405715,16.8269814 7.23593588,17.3153124 5.81460818,17.3153124 C5.56975125,17.3153124 5.32824778,17.3008809 5.09090909,17.2726713 C6.43348449,18.1393268 8.02816463,18.6449756 9.74140593,18.6449756 C15.3215694,18.6449756 18.373005,13.9905554 18.373005,9.95413238 C18.373005,9.82168887 18.3700842,9.68995331 18.3642427,9.55898018 C18.9569404,9.12832092 19.4713184,8.5903236 19.8780611,7.97777235 Z" id="Oval-23" fill="#BD0FE1" sketch:type="MSShapeGroup"></path>
                <path d="M40,24 C46.627417,24 52,18.627417 52,12 C52,5.372583 46.627417,0 40,0 C33.372583,0 28,5.372583 28,12 C28,18.627417 33.372583,24 40,24 Z M47.8780611,7.97777235 C47.3339887,8.22071253 46.7492961,8.38490545 46.1356122,8.45875143 C46.7620068,8.08069925 47.2430125,7.48208942 47.4695335,6.76884406 C46.8833805,7.11885001 46.2341067,7.37306314 45.5430768,7.51008118 C44.9896472,6.91642709 44.2012046,6.54545455 43.328655,6.54545455 C41.6531672,6.54545455 40.2947981,7.91307543 40.2947981,9.59993311 C40.2947981,9.83933348 40.3216799,10.0724711 40.3733881,10.296024 C37.8520161,10.1686451 35.6166081,8.95258276 34.1203143,7.10458184 C33.8591768,7.55571756 33.709569,8.08042696 33.709569,8.64020776 C33.709569,9.69991925 34.2452037,10.6348659 35.05923,11.1826113 C34.5618897,11.1667639 34.0941356,11.0293646 33.6850671,10.8005837 C33.6848508,10.813327 33.6848508,10.8261248 33.6848508,10.838977 C33.6848508,12.3189462 34.7305905,13.5535245 36.1184377,13.8340957 C35.8638449,13.9039117 35.5958383,13.9412159 35.3191234,13.9412159 C35.1236489,13.9412159 34.9335833,13.9221009 34.7483855,13.8864304 C35.1344125,15.0999877 36.2547939,15.9830897 37.5823328,16.0077595 C36.5440571,16.8269814 35.2359359,17.3153124 33.8146082,17.3153124 C33.5697512,17.3153124 33.3282478,17.3008809 33.0909091,17.2726713 C34.4334845,18.1393268 36.0281646,18.6449756 37.7414059,18.6449756 C43.3215694,18.6449756 46.373005,13.9905554 46.373005,9.95413238 C46.373005,9.82168887 46.3700842,9.68995331 46.3642427,9.55898018 C46.9569404,9.12832092 47.4713184,8.5903236 47.8780611,7.97777235 Z" id="Oval-23-Copy" fill="#FFFFFF" sketch:type="MSShapeGroup"></path>
                <path d="M68,24 C74.627417,24 80,18.627417 80,12 C80,5.372583 74.627417,0 68,0 C61.372583,0 56,5.372583 56,12 C56,18.627417 61.372583,24 68,24 Z M76.1208487,8.10982998 C75.5767763,8.35277016 74.9920837,8.51696309 74.3783998,8.59080906 C75.0047944,8.21275689 75.4858001,7.61414706 75.7123211,6.9009017 C75.1261682,7.25090765 74.4768943,7.50512078 73.7858645,7.64213882 C73.2324348,7.04848473 72.4439922,6.67751218 71.5714426,6.67751218 C69.8959548,6.67751218 68.5375857,8.04513307 68.5375857,9.73199075 C68.5375857,9.97139112 68.5644675,10.2045287 68.6161757,10.4280816 C66.0948038,10.3007028 63.8593957,9.08464039 62.3631019,7.23663947 C62.1019644,7.6877752 61.9523567,8.2124846 61.9523567,8.77226539 C61.9523567,9.83197689 62.4879914,10.7669235 63.3020176,11.314669 C62.8046773,11.2988215 62.3369232,11.1614222 61.9278547,10.9326413 C61.9276384,10.9453846 61.9276384,10.9581824 61.9276384,10.9710347 C61.9276384,12.4510038 62.9733782,13.6855822 64.3612253,13.9661533 C64.1066325,14.0359693 63.8386259,14.0732735 63.561911,14.0732735 C63.3664366,14.0732735 63.1763709,14.0541585 62.9911732,14.0184881 C63.3772001,15.2320454 64.4975815,16.1151473 65.8251204,16.1398171 C64.7868448,16.9590391 63.4787235,17.4473701 62.0573958,17.4473701 C61.8125389,17.4473701 61.5710354,17.4329385 61.3336967,17.4047289 C62.6762721,18.2713844 64.2709522,18.7770333 65.9841936,18.7770333 C71.5643571,18.7770333 74.6157926,14.1226131 74.6157926,10.08619 C74.6157926,9.9537465 74.6128719,9.82201095 74.6070303,9.69103782 C75.199728,9.26037856 75.7141061,8.72238124 76.1208487,8.10982998 Z" id="Oval-23-Copy-2" fill="#333333" sketch:type="MSShapeGroup"></path>
            </g>
        </g>
    </g>
</svg>